<?xml version="1.0" encoding="UTF-8"?>
<svg xmlns="http://www.w3.org/2000/svg" version="1.1" viewBox="0 0 1024 768">
  <defs>
    <style>
      .cls-1 {
        fill: #fff;
        stroke: #000;
        stroke-miterlimit: 10;
        stroke-width: .5px;
      }
    </style>
  </defs>
  <!-- Generator: Adobe Illustrator 28.8.0, SVG Export Plug-In . SVG Version: 1.2.0 Build 43)  -->
  <g>
    <g id="Layer_1">
      <path class="cls-1" d="M350,658.05c-150.5,0-272.5-122-272.5-272.5S199.5,113.05,350,113.05c40.54,0,79.01,8.87,113.59,24.75,15.45-13.32,32.15-25.21,49.91-35.49-48.1-27.82-103.94-43.76-163.5-43.76C169.4,58.55,23,204.96,23,385.55s146.4,327,327,327c59.56,0,115.4-15.93,163.5-43.76-17.76-10.27-34.47-22.17-49.91-35.49-34.58,15.88-73.05,24.75-113.59,24.75Z"/>
      <path class="cls-1" d="M422.71,591.12c-22.74,8.04-47.21,12.44-72.71,12.44-120.4,0-218-97.6-218-218s97.6-218,218-218c25.5,0,49.97,4.39,72.71,12.44,12.35-15.25,26.03-29.38,40.88-42.19-34.58-15.88-73.05-24.75-113.59-24.75-150.5,0-272.5,122-272.5,272.5s122,272.5,272.5,272.5c40.54,0,79.01-8.87,113.59-24.75-14.86-12.81-28.53-26.94-40.88-42.19Z"/>
      <path class="cls-1" d="M350,549.05c-90.3,0-163.5-73.2-163.5-163.5s73.2-163.5,163.5-163.5c14.11,0,27.8,1.79,40.86,5.15,9.25-16.69,19.92-32.48,31.85-47.21-22.74-8.04-47.21-12.44-72.71-12.44-120.4,0-218,97.6-218,218s97.6,218,218,218c25.5,0,49.97-4.39,72.71-12.44-11.93-14.73-22.6-30.52-31.85-47.21-13.06,3.36-26.75,5.15-40.86,5.15Z"/>
      <path class="cls-1" d="M350,494.55c-60.2,0-109-48.8-109-109s48.8-109,109-109c6.17,0,12.21.52,18.1,1.5,6.16-17.69,13.79-34.7,22.75-50.86-13.06-3.36-26.75-5.15-40.86-5.15-90.3,0-163.5,73.2-163.5,163.5s73.2,163.5,163.5,163.5c14.11,0,27.8-1.79,40.86-5.15-8.96-16.16-16.6-33.16-22.75-50.86-5.89.98-11.93,1.5-18.1,1.5Z"/>
      <path class="cls-1" d="M350,440.05c-30.1,0-54.5-24.4-54.5-54.5s24.4-54.5,54.5-54.5c1.52,0,3.02.08,4.51.2,3.06-18.29,7.63-36.07,13.59-53.2-5.89-.98-11.93-1.5-18.1-1.5-60.2,0-109,48.8-109,109s48.8,109,109,109c6.17,0,12.21-.52,18.1-1.5-5.96-17.13-10.53-34.9-13.59-53.2-1.49.12-2.99.2-4.51.2Z"/>
      <path class="cls-1" d="M354.51,331.25c-1.49-.12-2.99-.2-4.51-.2-30.1,0-54.5,24.4-54.5,54.5s24.4,54.5,54.5,54.5c1.52,0,3.02-.08,4.51-.2-2.95-17.66-4.51-35.8-4.51-54.3s1.56-36.64,4.51-54.3Z"/>
      <path class="cls-1" d="M677,58.55c-59.56,0-115.4,15.93-163.5,43.76,17.76,10.27,34.47,22.17,49.91,35.49,34.58-15.88,73.05-24.75,113.59-24.75,150.5,0,272.5,122,272.5,272.5s-122,272.5-272.5,272.5c-40.54,0-79.01-8.87-113.59-24.75-15.45,13.32-32.15,25.21-49.91,35.49,48.1,27.82,103.94,43.76,163.5,43.76,180.6,0,327-146.4,327-327S857.6,58.55,677,58.55Z"/>
      <path class="cls-1" d="M513.5,167.54c15.45-11.6,32.17-21.59,49.91-29.74-15.45-13.32-32.15-25.21-49.91-35.49-17.76,10.27-34.47,22.17-49.91,35.49,17.74,8.15,34.47,18.14,49.91,29.74Z"/>
      <path class="cls-1" d="M513.5,603.56c-15.45,11.6-32.17,21.59-49.91,29.74,15.45,13.32,32.15,25.21,49.91,35.49,17.76-10.27,34.47-22.17,49.91-35.49-17.74-8.15-34.47-18.14-49.91-29.74Z"/>
      <path class="cls-1" d="M422.71,179.99c17.82,6.3,34.59,14.85,49.94,25.32,12.29-13.93,25.98-26.6,40.85-37.77-15.45-11.6-32.17-21.59-49.91-29.74-14.86,12.81-28.53,26.94-40.88,42.19Z"/>
      <path class="cls-1" d="M472.65,565.8c-15.35,10.47-32.11,19.02-49.94,25.32,12.35,15.25,26.03,29.38,40.88,42.19,17.74-8.15,34.47-18.14,49.91-29.74-14.88-11.17-28.56-23.84-40.85-37.77Z"/>
      <path class="cls-1" d="M390.86,543.91c9.25,16.69,19.92,32.48,31.85,47.21,17.82-6.3,34.59-14.85,49.94-25.32-12.02-13.62-22.71-28.43-31.84-44.26-15.07,10.08-31.9,17.73-49.95,22.38Z"/>
      <path class="cls-1" d="M440.8,249.57c9.13-15.83,19.82-30.65,31.84-44.26-15.35-10.47-32.11-19.02-49.94-25.32-11.93,14.73-22.6,30.52-31.85,47.21,18.04,4.64,34.88,12.29,49.95,22.38Z"/>
      <path class="cls-1" d="M368.1,493.05c6.16,17.69,13.79,34.7,22.75,50.86,18.04-4.64,34.88-12.29,49.95-22.38-9.23-16-16.87-33.02-22.73-50.86-14.19,11.36-31.27,19.25-49.98,22.37Z"/>
      <path class="cls-1" d="M418.08,300.43c5.86-17.83,13.5-34.86,22.73-50.86-15.07-10.08-31.9-17.73-49.95-22.38-8.96,16.16-16.6,33.16-22.75,50.86,18.7,3.13,35.79,11.01,49.98,22.37Z"/>
      <path class="cls-1" d="M404.5,385.55c0-29.73,4.78-58.34,13.58-85.12-14.19-11.36-31.27-19.25-49.98-22.37-5.96,17.13-10.53,34.9-13.59,53.2,27.99,2.3,49.99,25.72,49.99,54.3Z"/>
      <path class="cls-1" d="M354.51,439.85c3.06,18.29,7.63,36.07,13.59,53.2,18.7-3.13,35.79-11.01,49.98-22.37-8.8-26.78-13.58-55.39-13.58-85.12,0,28.58-22,52-49.99,54.3Z"/>
      <path class="cls-1" d="M354.51,331.25c-2.95,17.66-4.51,35.8-4.51,54.3s1.56,36.64,4.51,54.3c27.99-2.3,49.99-25.72,49.99-54.3s-22-52-49.99-54.3Z"/>
      <path class="cls-1" d="M604.29,179.99c22.74-8.04,47.21-12.44,72.71-12.44,120.4,0,218,97.6,218,218s-97.6,218-218,218c-25.5,0-49.97-4.39-72.71-12.44-12.35,15.25-26.03,29.38-40.88,42.19,34.58,15.88,73.05,24.75,113.59,24.75,150.5,0,272.5-122,272.5-272.5s-122-272.5-272.5-272.5c-40.54,0-79.01,8.87-113.59,24.75,14.86,12.81,28.53,26.94,40.88,42.19Z"/>
      <path class="cls-1" d="M604.29,591.12c-17.82-6.3-34.59-14.85-49.94-25.32-12.29,13.93-25.98,26.6-40.85,37.77,15.45,11.6,32.17,21.59,49.91,29.74,14.86-12.81,28.53-26.94,40.88-42.19Z"/>
      <path class="cls-1" d="M554.35,205.31c15.35-10.47,32.11-19.02,49.94-25.32-12.35-15.25-26.03-29.38-40.88-42.19-17.74,8.15-34.47,18.14-49.91,29.74,14.88,11.17,28.56,23.84,40.85,37.77Z"/>
      <path class="cls-1" d="M472.65,205.31c15.09,10.29,28.81,22.42,40.85,36.07,12.05-13.65,25.77-25.78,40.85-36.07-12.29-13.93-25.98-26.6-40.85-37.77-14.88,11.17-28.56,23.84-40.85,37.77Z"/>
      <path class="cls-1" d="M554.35,565.8c-15.09-10.29-28.81-22.42-40.85-36.07-12.05,13.65-25.77,25.78-40.85,36.07,12.29,13.93,25.98,26.6,40.85,37.77,14.88-11.17,28.56-23.84,40.85-37.77Z"/>
      <path class="cls-1" d="M440.8,521.53c9.13,15.83,19.82,30.65,31.84,44.26,15.09-10.29,28.81-22.42,40.85-36.07-12.56-14.23-23.28-30.1-31.81-47.27-11.25,15.27-25.1,28.51-40.88,39.07Z"/>
      <path class="cls-1" d="M481.69,288.65c8.53-17.16,19.26-33.04,31.81-47.27-12.05-13.65-25.77-25.78-40.85-36.07-12.02,13.62-22.71,28.43-31.84,44.26,15.79,10.56,29.63,23.8,40.88,39.07Z"/>
      <path class="cls-1" d="M459,385.55c0-34.81,8.17-67.71,22.69-96.91-11.25-15.27-25.1-28.51-40.88-39.07-9.23,16-16.87,33.02-22.73,50.86,24.94,19.98,40.92,50.68,40.92,85.12Z"/>
      <path class="cls-1" d="M418.08,470.67c5.86,17.83,13.5,34.86,22.73,50.86,15.79-10.56,29.63-23.8,40.88-39.07-14.51-29.19-22.69-62.09-22.69-96.91,0,34.44-15.98,65.15-40.92,85.12Z"/>
      <path class="cls-1" d="M418.08,300.43c-8.8,26.78-13.58,55.39-13.58,85.12s4.78,58.34,13.58,85.12c24.94-19.98,40.92-50.68,40.92-85.12s-15.98-65.15-40.92-85.12Z"/>
      <path class="cls-1" d="M677,222.05c90.3,0,163.5,73.2,163.5,163.5s-73.2,163.5-163.5,163.5c-14.11,0-27.8-1.79-40.86-5.15-9.25,16.69-19.92,32.48-31.85,47.21,22.74,8.04,47.21,12.44,72.71,12.44,120.4,0,218-97.6,218-218s-97.6-218-218-218c-25.5,0-49.97,4.39-72.71,12.44,11.93,14.73,22.6,30.52,31.85,47.21,13.06-3.36,26.75-5.15,40.86-5.15Z"/>
      <path class="cls-1" d="M586.2,521.53c-9.13,15.83-19.82,30.65-31.84,44.26,15.35,10.47,32.11,19.02,49.94,25.32,11.93-14.73,22.6-30.52,31.85-47.21-18.04-4.64-34.88-12.29-49.95-22.38Z"/>
      <path class="cls-1" d="M636.14,227.2c-9.25-16.69-19.92-32.48-31.85-47.21-17.82,6.3-34.59,14.85-49.94,25.32,12.02,13.62,22.71,28.43,31.84,44.26,15.07-10.08,31.9-17.73,49.95-22.38Z"/>
      <path class="cls-1" d="M513.5,241.38c12.56,14.23,23.28,30.1,31.81,47.27,11.25-15.27,25.1-28.51,40.88-39.07-9.13-15.83-19.82-30.65-31.84-44.26-15.09,10.29-28.81,22.42-40.85,36.07Z"/>
      <path class="cls-1" d="M545.31,482.46c-8.53,17.16-19.26,33.04-31.81,47.27,12.05,13.65,25.77,25.78,40.85,36.07,12.02-13.62,22.71-28.43,31.84-44.26-15.79-10.56-29.63-23.8-40.88-39.07Z"/>
      <path class="cls-1" d="M513.5,385.55c0-36.28,11.82-69.79,31.81-96.91-8.53-17.16-19.26-33.04-31.81-47.27-12.56,14.23-23.28,30.1-31.81,47.27,19.99,27.12,31.81,60.63,31.81,96.91Z"/>
      <path class="cls-1" d="M513.5,385.55c0,36.28-11.82,69.79-31.81,96.91,8.53,17.16,19.26,33.04,31.81,47.27,12.56-14.23,23.28-30.1,31.81-47.27-19.99-27.12-31.81-60.63-31.81-96.91Z"/>
      <path class="cls-1" d="M459,385.55c0,34.81,8.17,67.71,22.69,96.91,19.99-27.12,31.81-60.63,31.81-96.91s-11.82-69.79-31.81-96.91c-14.51,29.19-22.69,62.09-22.69,96.91Z"/>
      <path class="cls-1" d="M677,276.55c60.2,0,109,48.8,109,109s-48.8,109-109,109c-6.17,0-12.21-.52-18.1-1.5-6.16,17.69-13.79,34.7-22.75,50.86,13.06,3.36,26.75,5.15,40.86,5.15,90.3,0,163.5-73.2,163.5-163.5s-73.2-163.5-163.5-163.5c-14.11,0-27.8,1.79-40.86,5.15,8.96,16.16,16.6,33.16,22.75,50.86,5.89-.98,11.93-1.5,18.1-1.5Z"/>
      <path class="cls-1" d="M608.92,470.67c-5.86,17.83-13.5,34.86-22.73,50.86,15.07,10.08,31.9,17.73,49.95,22.38,8.96-16.16,16.6-33.16,22.75-50.86-18.7-3.13-35.79-11.01-49.98-22.37Z"/>
      <path class="cls-1" d="M658.9,278.06c-6.16-17.69-13.79-34.7-22.75-50.86-18.04,4.64-34.88,12.29-49.95,22.38,9.23,16,16.87,33.02,22.73,50.86,14.19-11.36,31.27-19.25,49.98-22.37Z"/>
      <path class="cls-1" d="M568,385.55c0,34.81-8.17,67.71-22.69,96.91,11.25,15.27,25.1,28.51,40.88,39.07,9.23-16,16.87-33.02,22.73-50.86-24.94-19.98-40.92-50.68-40.92-85.12Z"/>
      <path class="cls-1" d="M608.92,300.43c-5.86-17.83-13.5-34.86-22.73-50.86-15.79,10.56-29.63,23.8-40.88,39.07,14.51,29.19,22.69,62.09,22.69,96.91,0-34.44,15.98-65.15,40.92-85.12Z"/>
      <path class="cls-1" d="M545.31,482.46c14.51-29.19,22.69-62.09,22.69-96.91s-8.17-67.71-22.69-96.91c-19.99,27.12-31.81,60.63-31.81,96.91s11.82,69.79,31.81,96.91Z"/>
      <path class="cls-1" d="M677,331.05c30.1,0,54.5,24.4,54.5,54.5s-24.4,54.5-54.5,54.5c-1.52,0-3.02-.08-4.51-.2-3.06,18.29-7.63,36.07-13.59,53.2,5.89.98,11.93,1.5,18.1,1.5,60.2,0,109-48.8,109-109s-48.8-109-109-109c-6.17,0-12.21.52-18.1,1.5,5.96,17.13,10.53,34.9,13.59,53.2,1.49-.12,2.99-.2,4.51-.2Z"/>
      <path class="cls-1" d="M672.49,331.25c-3.06-18.29-7.63-36.07-13.59-53.2-18.7,3.13-35.79,11.01-49.98,22.37,8.8,26.78,13.58,55.39,13.58,85.12,0-28.58,22-52,49.99-54.3Z"/>
      <path class="cls-1" d="M622.5,385.55c0,29.73-4.78,58.34-13.58,85.12,14.19,11.36,31.27,19.25,49.98,22.37,5.96-17.13,10.53-34.9,13.59-53.2-27.99-2.3-49.99-25.72-49.99-54.3Z"/>
      <path class="cls-1" d="M608.92,470.67c8.8-26.78,13.58-55.39,13.58-85.12s-4.78-58.34-13.58-85.12c-24.94,19.98-40.92,50.68-40.92,85.12s15.98,65.15,40.92,85.12Z"/>
      <path class="cls-1" d="M672.49,439.85c1.49.12,2.99.2,4.51.2,30.1,0,54.5-24.4,54.5-54.5s-24.4-54.5-54.5-54.5c-1.52,0-3.02.08-4.51.2,2.95,17.66,4.51,35.8,4.51,54.3s-1.56,36.64-4.51,54.3Z"/>
      <path class="cls-1" d="M672.49,439.85c2.95-17.66,4.51-35.8,4.51-54.3s-1.56-36.64-4.51-54.3c-27.99,2.3-49.99,25.72-49.99,54.3s22,52,49.99,54.3Z"/>
    </g>
  </g>
</svg>