<?xml version="1.0" encoding="UTF-8"?>
<svg xmlns="http://www.w3.org/2000/svg" version="1.1" viewBox="0 0 1024 768">
  <defs>
    <style>
      .cls-1 {
        fill: none;
      }

      .cls-2 {
        fill: #fff;
      }
    </style>
  </defs>
  <!-- Generator: Adobe Illustrator 28.8.0, SVG Export Plug-In . SVG Version: 1.2.0 Build 43)  -->
  <g>
    <g id="Layer_1">
      <path class="cls-1" d="M586.5,317.43v-11.93h-1.27c.56,3.92.95,7.9,1.13,11.93h.14Z"/>
      <path class="cls-1" d="M342.6,305.5h-1.32v11.93h.19c.18-4.03.57-8.01,1.13-11.93Z"/>
      <path class="cls-1" d="M341.47,317.43h-.19v11.65h.2c-.09-1.98-.15-3.97-.15-5.97s.05-3.8.14-5.68Z"/>
      <path class="cls-1" d="M586.5,323.11v-5.68h-.14c.09,1.88.14,3.78.14,5.68Z"/>
      <path class="cls-1" d="M586.35,329.08h.15v-5.97c0,2-.05,3.99-.15,5.97Z"/>
      <g>
        <path class="cls-2" d="M476.62,227.3c-4.22-.55-8.49-.83-12.7-.83s-8.44.28-12.63.83v-25.61c4.2-.43,8.45-.65,12.63-.65s8.47.22,12.7.66v25.61Z"/>
        <path d="M463.91,201.53c4.04,0,8.14.21,12.2.61v24.59c-4.06-.51-8.16-.77-12.2-.77s-8.1.25-12.13.76v-24.59c4.04-.4,8.12-.6,12.13-.6M463.91,200.53c-4.44,0-8.82.24-13.13.7v26.63c4.29-.59,8.68-.9,13.13-.9s8.89.31,13.2.91v-26.63c-4.34-.46-8.74-.71-13.2-.71h0Z"/>
      </g>
      <g>
        <path class="cls-2" d="M486.78,229.19c-3.01-.73-6.09-1.32-9.16-1.76v-25.64c3.04.34,6.12.8,9.16,1.38v26.01Z"/>
        <path d="M478.12,202.36c2.72.32,5.46.73,8.16,1.24v24.96c-2.68-.63-5.42-1.15-8.16-1.56v-24.64M477.12,201.24v26.63c3.45.47,6.84,1.13,10.16,1.96v-27.06c-3.34-.65-6.73-1.16-10.16-1.52h0Z"/>
      </g>
      <g>
        <path class="cls-2" d="M441.12,203.16c3.05-.58,6.12-1.04,9.16-1.38v25.63c-3.08.43-6.15,1.02-9.16,1.75v-26.01Z"/>
        <path d="M449.78,202.35v24.64c-2.74.4-5.48.92-8.16,1.55v-24.96c2.71-.5,5.45-.92,8.16-1.23M450.78,201.23c-3.43.37-6.82.88-10.16,1.52v27.06c3.32-.83,6.71-1.48,10.16-1.95v-26.63h0Z"/>
      </g>
      <g>
        <path class="cls-2" d="M414.78,211.33c8.11-3.57,16.63-6.25,25.34-7.97v26.06c-8.91,2.25-17.42,5.77-25.34,10.45v-28.54Z"/>
        <path d="M439.62,203.97v25.06c-8.53,2.2-16.71,5.54-24.34,9.96v-27.34c7.8-3.41,15.98-5.99,24.34-7.69M440.62,202.75c-9.18,1.77-18,4.56-26.34,8.25v29.75c8.08-4.88,16.93-8.6,26.34-10.94v-27.06h0Z"/>
      </g>
      <g>
        <path class="cls-2" d="M513.12,239.91c-7.91-4.69-16.43-8.21-25.34-10.47v-26.07c8.71,1.73,17.23,4.41,25.34,7.99v28.55Z"/>
        <path d="M488.28,203.98c8.36,1.7,16.54,4.29,24.34,7.7v27.35c-7.63-4.43-15.8-7.78-24.34-9.99v-25.07M487.28,202.76v27.06c9.4,2.35,18.26,6.08,26.34,10.96v-29.76c-8.33-3.7-17.15-6.5-26.34-8.27h0Z"/>
      </g>
      <g>
        <path class="cls-2" d="M404.62,216.38c2.98-1.66,6.06-3.21,9.16-4.61v28.69c-3.15,1.92-6.23,4.04-9.16,6.32v-30.41Z"/>
        <path d="M413.28,212.55v27.64c-2.8,1.71-5.54,3.59-8.16,5.59v-29.1c2.67-1.48,5.4-2.86,8.16-4.13M414.28,211c-3.48,1.54-6.87,3.24-10.16,5.09v31.73c3.23-2.57,6.62-4.93,10.16-7.07v-29.75h0Z"/>
      </g>
      <g>
        <path class="cls-2" d="M523.16,246.75c-2.9-2.25-5.94-4.35-9.04-6.24v-28.7c3.05,1.38,6.09,2.91,9.04,4.55v30.4Z"/>
        <path d="M514.62,212.58c2.72,1.25,5.41,2.61,8.04,4.07v29.09c-2.59-1.97-5.29-3.82-8.04-5.5v-27.65M513.62,211.03v29.76c3.5,2.12,6.85,4.45,10.04,6.99v-31.72c-3.26-1.82-6.61-3.5-10.04-5.03h0Z"/>
      </g>
      <g>
        <path class="cls-2" d="M560.06,323.11c0,2-.07,3.99-.19,5.97h.29v-11.65h-.27c.11,1.88.17,3.77.17,5.68Z"/>
        <path d="M560.16,317.43h-.27c.11,1.88.17,3.77.17,5.68,0,2-.07,3.99-.19,5.97h.29v-11.65h0Z"/>
      </g>
      <g>
        <path class="cls-2" d="M560.66,316.93v-10.94h24.14c.51,3.62.86,7.29,1.04,10.94h-25.18Z"/>
        <path d="M584.36,306.5c.45,3.29.77,6.63.95,9.93h-24.15v-9.93h23.2M585.23,305.5h-25.07v11.93h26.2c-.18-4.03-.57-8.01-1.13-11.93h0Z"/>
      </g>
      <g>
        <path class="cls-2" d="M378.28,236.11c7.58-7.47,16.1-13.91,25.34-19.16v30.63c-10.42,8.33-19.14,18.9-25.34,30.69v-42.16Z"/>
        <path d="M403.12,217.81v29.53c-9.87,7.93-18.22,17.88-24.34,28.95v-39.97c7.31-7.17,15.49-13.39,24.34-18.51M404.12,216.09c-9.66,5.41-18.52,12.09-26.34,19.81v44.45c6.31-12.69,15.34-23.79,26.34-32.53v-31.73h0Z"/>
      </g>
      <g>
        <path class="cls-2" d="M368.12,306h.66c-.25,1.41-.47,2.83-.66,4.26v-4.26Z"/>
        <path d="M369.38,305.5h-1.76v11.93h.32c.24-4.05.72-8.03,1.44-11.93h0Z"/>
      </g>
      <g>
        <path class="cls-2" d="M367.94,317.43h-.32v11.65h.34c-.12-1.97-.19-3.96-.19-5.97s.06-3.8.17-5.68Z"/>
        <path d="M367.94,317.43h-.32v11.65h.34c-.12-1.97-.19-3.96-.19-5.97s.06-3.8.17-5.68h0Z"/>
      </g>
      <g>
        <path class="cls-2" d="M549.5,278.17c-6.2-11.77-14.92-22.32-25.33-30.64v-30.62c9.23,5.25,17.75,11.69,25.33,19.14v42.11Z"/>
        <path d="M524.66,217.78c8.84,5.11,17.02,11.33,24.34,18.49v39.93c-6.12-11.06-14.47-20.98-24.34-28.9v-29.52M523.66,216.06v31.72c10.99,8.72,20.02,19.8,26.34,32.47v-44.39c-7.82-7.72-16.68-14.39-26.34-19.79h0Z"/>
      </g>
      <g>
        <path class="cls-2" d="M558.86,305c-1.64-8.63-4.45-17-8.37-24.87v-43.07c3.25,3.26,6.32,6.73,9.17,10.31v57.63h-.8Z"/>
        <path d="M551,238.28c2.88,2.96,5.62,6.07,8.16,9.27v56.36c-1.66-8.28-4.41-16.32-8.16-23.9v-41.73M550,235.85v44.39c3.92,7.86,6.8,16.34,8.45,25.25h1.71v-58.3c-3.15-3.99-6.55-7.78-10.16-11.34h0Z"/>
      </g>
      <g>
        <path class="cls-2" d="M560.66,305v-56.35c12.67,16.43,20.95,35.87,23.99,56.35h-23.99Z"/>
        <path d="M561.16,250.13c11.99,15.96,19.88,34.67,22.91,54.36h-22.91v-54.36M560.16,247.19v58.3h25.07c-3.14-21.82-12.02-41.78-25.07-58.3h0Z"/>
      </g>
      <g>
        <path class="cls-2" d="M559.66,309.89c-.18-1.3-.38-2.6-.61-3.89h.61v3.89Z"/>
        <path d="M560.16,305.5h-1.71c.72,3.9,1.21,7.88,1.44,11.93h.27v-11.93h0Z"/>
      </g>
      <g>
        <path class="cls-2" d="M487.78,416.79c8.91-2.26,17.43-5.78,25.34-10.47v28.55c-8.11,3.58-16.63,6.26-25.34,7.99v-26.07Z"/>
        <path d="M512.62,407.19v27.35c-7.8,3.41-15.98,6-24.34,7.7v-25.07c8.54-2.21,16.71-5.56,24.34-9.99M513.62,405.43c-8.08,4.89-16.93,8.62-26.34,10.96v27.06c9.19-1.77,18.01-4.57,26.34-8.27v-29.76h0Z"/>
      </g>
      <g>
        <path class="cls-2" d="M514.12,405.71c3.11-1.89,6.14-3.99,9.04-6.24v30.4c-2.95,1.64-5.99,3.17-9.04,4.55v-28.7Z"/>
        <path d="M522.66,400.49v29.09c-2.63,1.45-5.33,2.82-8.04,4.07v-27.65c2.75-1.69,5.45-3.53,8.04-5.5M523.66,398.44c-3.19,2.53-6.54,4.87-10.04,6.99v29.76c3.43-1.52,6.78-3.2,10.04-5.03v-31.72h0Z"/>
      </g>
      <g>
        <path class="cls-2" d="M477.62,418.79c3.07-.44,6.15-1.03,9.16-1.76v26.01c-3.04.58-6.11,1.04-9.16,1.38v-25.64Z"/>
        <path d="M486.28,417.67v24.96c-2.71.5-5.45.92-8.16,1.24v-24.64c2.74-.4,5.48-.92,8.16-1.56M487.28,416.4c-3.32.83-6.71,1.49-10.16,1.96v26.63c3.43-.37,6.82-.88,10.16-1.52v-27.06h0Z"/>
      </g>
      <g>
        <path class="cls-2" d="M560.66,328.58v-10.65h25.22c.08,1.81.11,3.51.11,5.18,0,1.77-.04,3.61-.12,5.47h-25.21Z"/>
        <path d="M585.4,318.43c.06,1.63.09,3.17.09,4.68,0,1.61-.03,3.28-.1,4.97h-24.23v-9.65h24.24M586.36,317.43h-26.2v11.65h26.19c.09-1.98.15-3.97.15-5.97s-.05-3.8-.14-5.68h0Z"/>
      </g>
      <g>
        <path class="cls-2" d="M524.16,398.69c10.41-8.31,19.14-18.87,25.33-30.64v42.12c-7.59,7.46-16.11,13.9-25.33,19.14v-30.62Z"/>
        <path d="M549,370.03v39.93c-7.31,7.16-15.49,13.38-24.34,18.49v-29.52c9.87-7.92,18.22-17.84,24.34-28.9M550,365.98c-6.32,12.67-15.35,23.74-26.34,32.47v31.72c9.66-5.4,18.51-12.07,26.34-19.79v-44.39h0Z"/>
      </g>
      <g>
        <path class="cls-2" d="M560.66,329.58h25.16c-1.3,24.84-9.98,48.31-25.16,68v-68Z"/>
        <path d="M585.3,330.08c-1.36,24.06-9.68,46.79-24.14,66.01v-66.01h24.14M586.35,329.08h-26.19v69.95c15.34-19.42,24.93-43.59,26.19-69.95h0Z"/>
      </g>
      <g>
        <path class="cls-2" d="M463.91,445.19c-4.17,0-8.42-.22-12.63-.65v-25.61c4.2.55,8.44.83,12.63.83s8.48-.28,12.7-.84v25.61c-4.23.44-8.5.66-12.7.66Z"/>
        <path d="M476.12,419.49v24.59c-4.07.41-8.17.61-12.2.61s-8.09-.2-12.13-.6v-24.59c4.03.5,8.11.76,12.13.76s8.15-.26,12.2-.77M477.12,418.35c-4.32.59-8.72.91-13.2.91s-8.84-.31-13.13-.9v26.63c4.31.46,8.69.7,13.13.7s8.87-.24,13.2-.71v-26.63h0Z"/>
      </g>
      <g>
        <path class="cls-2" d="M368.12,305v-57.56c2.84-3.58,5.92-7.05,9.16-10.33v43.12c-3.89,7.84-6.69,16.17-8.32,24.77h-.85Z"/>
        <path d="M376.78,238.33v41.79c-3.77,7.63-6.52,15.71-8.16,24.05v-56.55c2.54-3.2,5.28-6.32,8.16-9.28M377.78,235.9c-3.62,3.57-7.01,7.36-10.16,11.36v58.24h1.76c1.64-8.87,4.5-17.31,8.4-25.15v-44.45h0Z"/>
      </g>
      <g>
        <path class="cls-2" d="M550.5,366.1c4.68-9.41,7.75-19.39,9.17-29.75v62.51c-2.84,3.58-5.92,7.05-9.17,10.31v-43.07Z"/>
        <path d="M559.16,342.34v56.34c-2.54,3.2-5.28,6.31-8.16,9.27v-41.73c3.78-7.62,6.51-15.61,8.16-23.88M560.16,329.08h-.29c-.81,13.2-4.28,25.67-9.88,36.9v44.39c3.62-3.57,7.01-7.35,10.16-11.34v-69.95h0Z"/>
      </g>
      <g>
        <path class="cls-2" d="M450.28,444.43c-3.04-.34-6.12-.8-9.16-1.38v-26.01c3.01.73,6.08,1.31,9.16,1.75v25.63Z"/>
        <path d="M441.62,417.68c2.69.63,5.42,1.15,8.16,1.55v24.64c-2.71-.31-5.45-.73-8.16-1.23v-24.96M440.62,416.41v27.06c3.34.64,6.73,1.15,10.16,1.52v-26.63c-3.45-.47-6.84-1.12-10.16-1.95h0Z"/>
      </g>
      <g>
        <path class="cls-2" d="M367.12,397.51c-15.15-19.67-23.82-43.12-25.11-67.93h25.11v67.93Z"/>
        <path d="M366.62,330.08v65.95c-14.43-19.2-22.73-41.92-24.09-65.95h24.09M367.62,329.08h-26.14c1.26,26.33,10.83,50.48,26.14,69.89v-69.89h0Z"/>
      </g>
      <g>
        <path class="cls-2" d="M377.28,409.12c-3.25-3.27-6.33-6.74-9.16-10.33v-62.82c1.39,10.46,4.46,20.53,9.16,30.02v43.12Z"/>
        <path d="M368.62,342.08c1.64,8.32,4.37,16.36,8.16,24.03v41.79c-2.88-2.96-5.62-6.07-8.16-9.28v-56.53M367.95,329.08h-.34v69.89c3.15,4,6.55,7.79,10.16,11.36v-44.45c-5.57-11.2-9.02-23.64-9.83-36.8h0Z"/>
      </g>
      <g>
        <path class="cls-2" d="M341.96,328.58c-.08-1.86-.12-3.7-.12-5.47,0-1.67.04-3.37.11-5.18h25.17v10.65h-25.16Z"/>
        <path d="M366.62,318.43v9.65h-24.18c-.07-1.69-.1-3.35-.1-4.97,0-1.51.03-3.05.09-4.68h24.19M367.62,317.43h-26.15c-.09,1.88-.14,3.78-.14,5.68,0,2,.05,3.99.15,5.97h26.14v-11.65h0Z"/>
      </g>
      <g>
        <path class="cls-2" d="M341.99,316.93c.18-3.64.53-7.31,1.04-10.94h24.09v10.94h-25.13Z"/>
        <path d="M366.62,306.5v9.93h-24.1c.18-3.31.5-6.64.95-9.93h23.15M367.62,305.5h-25.02c-.56,3.92-.95,7.9-1.13,11.93h26.15v-11.93h0Z"/>
      </g>
      <g>
        <path class="cls-2" d="M343.18,305c3.04-20.45,11.31-39.87,23.94-56.28v56.28h-23.94Z"/>
        <path d="M366.62,250.2v54.3h-22.86c3.02-19.67,10.9-38.36,22.86-54.3M367.62,247.26c-13.02,16.51-21.88,36.45-25.02,58.24h25.02v-58.24h0Z"/>
      </g>
      <g>
        <path class="cls-2" d="M440.12,442.87c-8.71-1.72-17.23-4.4-25.34-7.97v-28.54c7.91,4.68,16.43,8.19,25.34,10.45v26.06Z"/>
        <path d="M415.28,407.23c7.63,4.42,15.8,7.77,24.34,9.96v25.06c-8.36-1.7-16.53-4.28-24.34-7.69v-27.34M414.28,405.47v29.75c8.33,3.69,17.15,6.48,26.34,8.25v-27.06c-9.4-2.34-18.26-6.06-26.34-10.94h0Z"/>
      </g>
      <g>
        <path class="cls-2" d="M403.62,429.28c-9.23-5.26-17.75-11.7-25.34-19.16v-42.16c6.19,11.79,14.91,22.36,25.34,30.69v30.63Z"/>
        <path d="M378.78,369.94c6.11,11.07,14.46,21.02,24.34,28.95v29.53c-8.85-5.12-17.03-11.34-24.34-18.51v-39.97M377.78,365.88v44.45c7.82,7.72,16.67,14.4,26.34,19.81v-31.73c-10.99-8.74-20.02-19.84-26.34-32.53h0Z"/>
      </g>
      <g>
        <path class="cls-2" d="M413.78,434.45c-3.1-1.4-6.18-2.95-9.16-4.61v-30.41c2.93,2.28,6.01,4.41,9.16,6.32v28.69Z"/>
        <path d="M405.12,400.45c2.63,2,5.37,3.88,8.16,5.59v27.64c-2.76-1.27-5.5-2.65-8.16-4.13v-29.1M404.12,398.4v31.73c3.3,1.85,6.69,3.55,10.16,5.09v-29.75c-3.54-2.14-6.94-4.5-10.16-7.07h0Z"/>
      </g>
      <g>
        <rect class="cls-2" x="477.62" y="317.93" width="9.16" height="10.65"/>
        <path d="M486.28,318.43v9.65h-8.16v-9.65h8.16M487.28,317.43h-10.16v11.65h10.16v-11.65h0Z"/>
      </g>
      <g>
        <rect class="cls-2" x="487.78" y="317.93" width="25.34" height="10.65"/>
        <path d="M512.62,318.43v9.65h-24.34v-9.65h24.34M513.62,317.43h-26.34v11.65h26.34v-11.65h0Z"/>
      </g>
      <g>
        <rect class="cls-2" x="441.12" y="317.93" width="9.16" height="10.65"/>
        <path d="M449.78,318.43v9.65h-8.16v-9.65h8.16M450.78,317.43h-10.16v11.65h10.16v-11.65h0Z"/>
      </g>
      <g>
        <rect class="cls-2" x="451.28" y="317.93" width="25.34" height="10.65"/>
        <path d="M476.12,318.43v9.65h-24.34v-9.65h24.34M477.12,317.43h-26.34v11.65h26.34v-11.65h0Z"/>
      </g>
      <g>
        <path class="cls-2" d="M550.5,316.93v-10.94h7.54c.65,3.59,1.09,7.26,1.33,10.94h-8.87Z"/>
        <path d="M557.61,306.5c.58,3.27.98,6.6,1.21,9.93h-7.83v-9.93h6.62M558.45,305.5h-8.45v11.93h9.9c-.24-4.05-.72-8.03-1.44-11.93h0Z"/>
      </g>
      <g>
        <rect class="cls-2" x="524.16" y="306" width="25.33" height="10.94"/>
        <path d="M549,306.5v9.93h-24.34v-9.93h24.34M550,305.5h-26.34v11.93h26.34v-11.93h0Z"/>
      </g>
      <g>
        <path class="cls-2" d="M524.16,305v-56.17c10.53,8.56,19.28,19.44,25.33,31.54v24.63h-25.33Z"/>
        <path d="M524.66,249.88c10.08,8.38,18.47,18.92,24.34,30.6v24.01h-24.34v-54.62M523.66,247.78v57.72h26.34v-25.25c-6.32-12.67-15.35-23.74-26.34-32.47h0Z"/>
      </g>
      <g>
        <path class="cls-2" d="M550.5,305v-22.57c3.38,7.19,5.85,14.77,7.35,22.57h-7.35Z"/>
        <path d="M551,284.72c2.8,6.34,4.89,12.97,6.24,19.77h-6.24v-19.77M550,280.25v25.25h8.45c-1.65-8.91-4.53-17.39-8.45-25.25h0Z"/>
      </g>
      <g>
        <rect class="cls-2" x="524.16" y="317.93" width="25.33" height="10.65"/>
        <path d="M549,318.43v9.65h-24.34v-9.65h24.34M550,317.43h-26.34v11.65h26.34v-11.65h0Z"/>
      </g>
      <g>
        <rect class="cls-2" x="514.12" y="317.93" width="9.04" height="10.65"/>
        <path d="M522.66,318.43v9.65h-8.04v-9.65h8.04M523.66,317.43h-10.04v11.65h10.04v-11.65h0Z"/>
      </g>
      <g>
        <rect class="cls-2" x="441.12" y="306" width="9.16" height="10.94"/>
        <path d="M449.78,306.5v9.93h-8.16v-9.93h8.16M450.78,305.5h-10.16v11.93h10.16v-11.93h0Z"/>
      </g>
      <g>
        <rect class="cls-2" x="414.78" y="317.93" width="25.34" height="10.65"/>
        <path d="M439.62,318.43v9.65h-24.34v-9.65h24.34M440.62,317.43h-26.34v11.65h26.34v-11.65h0Z"/>
      </g>
      <g>
        <rect class="cls-2" x="477.62" y="306" width="9.16" height="10.94"/>
        <path d="M486.28,306.5v9.93h-8.16v-9.93h8.16M487.28,305.5h-10.16v11.93h10.16v-11.93h0Z"/>
      </g>
      <g>
        <rect class="cls-2" x="514.12" y="306" width="9.04" height="10.94"/>
        <path d="M522.66,306.5v9.93h-8.04v-9.93h8.04M523.66,305.5h-10.04v11.93h10.04v-11.93h0Z"/>
      </g>
      <g>
        <rect class="cls-2" x="487.78" y="306" width="25.34" height="10.94"/>
        <path d="M512.62,306.5v9.93h-24.34v-9.93h24.34M513.62,305.5h-26.34v11.93h26.34v-11.93h0Z"/>
      </g>
      <g>
        <rect class="cls-2" x="451.28" y="306" width="25.34" height="10.94"/>
        <path d="M476.12,306.5v9.93h-24.34v-9.93h24.34M477.12,305.5h-26.34v11.93h26.34v-11.93h0Z"/>
      </g>
      <g>
        <rect class="cls-2" x="378.28" y="317.93" width="25.34" height="10.65"/>
        <path d="M403.12,318.43v9.65h-24.34v-9.65h24.34M404.12,317.43h-26.34v11.65h26.34v-11.65h0Z"/>
      </g>
      <g>
        <rect class="cls-2" x="414.78" y="306" width="25.34" height="10.94"/>
        <path d="M439.62,306.5v9.93h-24.34v-9.93h24.34M440.62,305.5h-26.34v11.93h26.34v-11.93h0Z"/>
      </g>
      <g>
        <rect class="cls-2" x="404.62" y="317.93" width="9.16" height="10.65"/>
        <path d="M413.28,318.43v9.65h-8.16v-9.65h8.16M414.28,317.43h-10.16v11.65h10.16v-11.65h0Z"/>
      </g>
      <g>
        <rect class="cls-2" x="378.28" y="306" width="25.34" height="10.94"/>
        <path d="M403.12,306.5v9.93h-24.34v-9.93h24.34M404.12,305.5h-26.34v11.93h26.34v-11.93h0Z"/>
      </g>
      <g>
        <rect class="cls-2" x="404.62" y="306" width="9.16" height="10.94"/>
        <path d="M413.28,306.5v9.93h-8.16v-9.93h8.16M414.28,305.5h-10.16v11.93h10.16v-11.93h0Z"/>
      </g>
      <g>
        <path class="cls-2" d="M441.12,305v-74.79c3.01-.74,6.09-1.33,9.16-1.77v76.56h-9.16Z"/>
        <path d="M449.78,229.01v75.48h-8.16v-73.9c2.68-.64,5.42-1.18,8.16-1.58M450.78,227.86c-3.45.47-6.84,1.12-10.16,1.95v75.69h10.16v-77.64h0Z"/>
      </g>
      <g>
        <path class="cls-2" d="M463.91,418.76c-4.19,0-8.43-.28-12.63-.83v-88.35h25.34v88.34c-4.22.56-8.49.84-12.7.84Z"/>
        <path d="M476.12,330.08v87.4c-4.05.52-8.16.78-12.2.78s-8.1-.26-12.13-.77v-87.41h24.34M477.12,329.08h-26.34v89.29c4.29.59,8.68.9,13.13.9s8.89-.31,13.2-.91v-89.28h0Z"/>
      </g>
      <g>
        <path class="cls-2" d="M450.28,417.79c-3.08-.44-6.16-1.03-9.16-1.77v-86.44h9.16v88.21Z"/>
        <path d="M449.78,330.08v87.13c-2.74-.41-5.48-.94-8.16-1.58v-85.55h8.16M450.78,329.08h-10.16v87.33c3.32.83,6.71,1.48,10.16,1.95v-89.29h0Z"/>
      </g>
      <g>
        <path class="cls-2" d="M477.62,329.58h9.16v86.42c-3.01.74-6.09,1.33-9.16,1.78v-88.2Z"/>
        <path d="M486.28,330.08v85.53c-2.68.65-5.42,1.18-8.16,1.59v-87.12h8.16M487.28,329.08h-10.16v89.28c3.45-.47,6.84-1.13,10.16-1.96v-87.32h0Z"/>
      </g>
      <g>
        <path class="cls-2" d="M440.12,415.77c-8.92-2.28-17.44-5.84-25.34-10.58v-75.61h25.34v86.19Z"/>
        <path d="M439.62,330.08v85.05c-8.55-2.25-16.73-5.68-24.34-10.22v-74.83h24.34M440.62,329.08h-26.34v76.4c8.08,4.88,16.93,8.6,26.34,10.94v-87.33h0Z"/>
      </g>
      <g>
        <path class="cls-2" d="M403.62,397.36c-10.54-8.58-19.29-19.48-25.34-31.6v-36.18h25.34v67.78Z"/>
        <path d="M403.12,330.08v66.22c-10.09-8.4-18.48-18.96-24.34-30.66v-35.56h24.34M404.12,329.08h-26.34v36.8c6.31,12.69,15.34,23.79,26.34,32.53v-69.33h0Z"/>
      </g>
      <g>
        <path class="cls-2" d="M413.78,404.58c-3.16-1.95-6.24-4.11-9.16-6.42v-68.58h9.16v75Z"/>
        <path d="M413.28,330.08v73.6c-2.81-1.77-5.55-3.7-8.16-5.76v-67.84h8.16M414.28,329.08h-10.16v69.33c3.23,2.57,6.62,4.93,10.16,7.07v-76.4h0Z"/>
      </g>
      <g>
        <path class="cls-2" d="M550.5,329.58h8.85c-.8,11.95-3.77,23.45-8.85,34.22v-34.22Z"/>
        <path d="M558.81,330.08c-.79,10.93-3.41,21.48-7.81,31.42v-31.42h7.81M559.87,329.08h-9.88v36.9c5.6-11.23,9.07-23.7,9.88-36.9h0Z"/>
      </g>
      <g>
        <path class="cls-2" d="M487.78,329.58h25.34v75.57c-7.9,4.75-16.42,8.31-25.34,10.6v-86.17Z"/>
        <path d="M512.62,330.08v74.79c-7.6,4.54-15.78,7.98-24.34,10.24v-85.03h24.34M513.62,329.08h-26.34v87.32c9.4-2.35,18.26-6.08,26.34-10.96v-76.35h0Z"/>
      </g>
      <g>
        <path class="cls-2" d="M550.5,328.58v-10.65h8.92c.1,1.8.14,3.5.14,5.18,0,1.77-.05,3.56-.16,5.47h-8.91Z"/>
        <path d="M558.94,318.43c.08,1.61.12,3.18.12,4.68,0,1.62-.04,3.25-.13,4.97h-7.93v-9.65h7.95M559.89,317.43h-9.9v11.65h9.88c.12-1.97.19-3.96.19-5.97s-.06-3.8-.17-5.68h0Z"/>
      </g>
      <g>
        <path class="cls-2" d="M514.12,305v-63.31c3.11,1.92,6.15,4.05,9.04,6.34v56.98h-9.04Z"/>
        <path d="M514.62,242.59c2.76,1.74,5.46,3.65,8.04,5.68v56.23h-8.04v-61.91M513.62,240.79v64.7h10.04v-57.72c-3.19-2.53-6.54-4.87-10.04-6.99h0Z"/>
      </g>
      <g>
        <path class="cls-2" d="M514.12,329.58h9.04v68.62c-2.89,2.28-5.93,4.41-9.04,6.34v-74.96Z"/>
        <path d="M522.66,330.08v67.88c-2.58,2.03-5.28,3.93-8.04,5.68v-73.56h8.04M523.66,329.08h-10.04v76.35c3.5-2.12,6.85-4.45,10.04-6.99v-69.37h0Z"/>
      </g>
      <g>
        <path class="cls-2" d="M524.16,329.58h25.33v36.28c-6.06,12.1-14.8,22.98-25.33,31.54v-67.82Z"/>
        <path d="M549,330.08v35.66c-5.87,11.68-14.25,22.22-24.34,30.6v-66.26h24.34M550,329.08h-26.34v69.37c10.99-8.72,20.02-19.8,26.34-32.47v-36.9h0Z"/>
      </g>
      <g>
        <path class="cls-2" d="M377.28,363.69c-5.04-10.74-8-22.21-8.8-34.12h8.8v34.12Z"/>
        <path d="M376.78,330.08v31.31c-4.37-9.92-6.97-20.42-7.76-31.31h7.76M377.78,329.08h-9.83c.81,13.16,4.26,25.6,9.83,36.8v-36.8h0Z"/>
      </g>
      <g>
        <path class="cls-2" d="M414.78,305v-63.96c7.9-4.74,16.42-8.3,25.34-10.58v74.54h-25.34Z"/>
        <path d="M439.62,231.1v73.4h-24.34v-63.18c7.61-4.53,15.78-7.97,24.34-10.22M440.62,229.81c-9.4,2.34-18.26,6.06-26.34,10.94v64.75h26.34v-75.69h0Z"/>
      </g>
      <g>
        <path class="cls-2" d="M477.62,305v-76.55c3.08.44,6.16,1.04,9.16,1.78v74.78h-9.16Z"/>
        <path d="M478.12,229.02c2.75.41,5.48.94,8.16,1.59v73.88h-8.16v-75.47M477.12,227.87v77.63h10.16v-75.67c-3.32-.83-6.71-1.49-10.16-1.96h0Z"/>
      </g>
      <g>
        <path class="cls-2" d="M487.78,305v-74.52c8.92,2.29,17.44,5.86,25.34,10.6v63.92h-25.34Z"/>
        <path d="M488.28,231.12c8.55,2.26,16.73,5.7,24.34,10.24v63.14h-24.34v-73.38M487.28,229.83v75.67h26.34v-64.7c-8.08-4.89-16.93-8.62-26.34-10.96h0Z"/>
      </g>
      <g>
        <path class="cls-2" d="M404.62,305v-56.93c2.93-2.32,6-4.47,9.16-6.42v63.36h-9.16Z"/>
        <path d="M413.28,242.54v61.96h-8.16v-56.19c2.62-2.06,5.36-3.99,8.16-5.76M414.28,240.75c-3.54,2.14-6.94,4.5-10.16,7.07v57.68h10.16v-64.75h0Z"/>
      </g>
      <g>
        <path class="cls-2" d="M451.28,305v-76.7c4.19-.55,8.44-.83,12.63-.83s8.49.28,12.7.84v76.69h-25.34Z"/>
        <path d="M463.91,227.96c4.05,0,8.15.26,12.2.78v75.75h-24.34v-75.76c4.03-.51,8.11-.77,12.13-.77M463.91,226.96c-4.45,0-8.84.31-13.13.9v77.64h26.34v-77.63c-4.32-.59-8.72-.91-13.2-.91h0Z"/>
      </g>
      <g>
        <path class="cls-2" d="M368.47,316.93c.23-3.67.68-7.34,1.33-10.94h7.49v10.94h-8.82Z"/>
        <path d="M376.78,306.5v9.93h-7.78c.23-3.33.64-6.67,1.21-9.93h6.57M377.78,305.5h-8.4c-.72,3.9-1.21,7.88-1.44,11.93h9.85v-11.93h0Z"/>
      </g>
      <g>
        <path class="cls-2" d="M378.28,305v-24.53c6.05-12.12,14.79-23.03,25.34-31.6v56.13h-25.34Z"/>
        <path d="M403.12,249.92v54.57h-24.34v-23.91c5.86-11.7,14.24-22.26,24.34-30.66M404.12,247.82c-10.99,8.74-20.02,19.84-26.34,32.53v25.15h26.34v-57.68h0Z"/>
      </g>
      <g>
        <path class="cls-2" d="M368.43,328.58c-.11-1.9-.16-3.69-.16-5.47,0-1.66.05-3.4.14-5.18h8.87v10.65h-8.86Z"/>
        <path d="M376.78,318.43v9.65h-7.88c-.09-1.72-.13-3.35-.13-4.97,0-1.5.04-3.08.12-4.68h7.9M377.78,317.43h-9.85c-.11,1.88-.17,3.77-.17,5.68,0,2,.07,3.99.19,5.97h9.83v-11.65h0Z"/>
      </g>
      <g>
        <path class="cls-2" d="M369.98,305c1.49-7.76,3.94-15.31,7.3-22.47v22.47h-7.3Z"/>
        <path d="M376.78,284.84v19.66h-6.19c1.34-6.76,3.42-13.35,6.19-19.66M377.78,280.35c-3.9,7.84-6.76,16.28-8.4,25.15h8.4v-25.15h0Z"/>
      </g>
    </g>
  </g>
</svg>